<?xml version="1.0" encoding="UTF-8" standalone="no"?>
<!-- Created with Inkscape (http://www.inkscape.org/) -->

<svg
   version="1.1"
   id="svg1"
   width="512"
   height="512"
   viewBox="0 0 512 512"
   xmlns="http://www.w3.org/2000/svg"
   xmlns:svg="http://www.w3.org/2000/svg">
  <defs
     id="defs1" />
  <g
     id="g1">
    <g
       id="g2">
      <path
         style="fill:#e7f6fc"
         d="M 103.31137,1.9517203 C 98.768511,4.7216908 98.012016,8.6824326 98.005577,29.730948 L 98,47.961896 l -2.75,0.58826 c -10.227456,2.187781 -11.241574,4.554798 -11.246262,26.249504 -0.0046,21.344535 1.600964,25.34379 10.586121,26.36846 L 97.5,101.5 97.755049,196.75 98.010098,292 h -2.10392 C 86.173089,292 84,296.90416 84,318.8695 v 18.06091 l 3.108441,3.54032 c 2.191354,2.49581 4.256573,3.72391 7,4.1626 L 98,345.25562 l 0.01981,8.62219 c 0.08774,38.19252 7.219811,44.43315 69.837291,61.10826 43.64134,11.62173 44.17715,11.79705 46.59162,15.24417 2.79836,3.99523 2.21721,23.76865 -0.69872,23.7735 -9.33715,0.0155 -11.75,6.13797 -11.75,29.81492 C 202,514.56329 197.08832,512 256,512 c 59.23081,0 54,2.77628 54,-28.66081 0,-24.70335 -0.93513,-27.31359 -10.5,-29.30888 l -3,-0.62581 v -11.17549 c 0,-15.30888 -3.75915,-13.14431 45.5192,-26.21065 52.68338,-13.9692 58.83795,-16.93592 66.49945,-32.05516 4.25712,-8.40103 4.70775,-10.49395 5.36668,-24.92519 l 0.61467,-13.46199 3.22495,-0.65659 c 9.23486,-1.88018 10.63079,-4.89223 11.09578,-23.94188 0.53163,-21.77932 -1.5321,-27.4328 -10.54898,-28.89836 l -3.77175,-0.61304 -0.25506,-94.62083 -0.25505,-94.62084 3.47562,-0.65203 C 426.61655,99.855702 428.98885,94.385272 428.98885,75 c 0,-19.666465 -2.32892,-25.231212 -11.14991,-26.641745 L 414,47.744384 414,28.521415 C 414,6.4245342 413.40454,3.6136936 408.26885,1.4678655 401.98896,-1.1560383 107.64228,-0.68901895 103.31137,1.9517203 Z"
         id="path30" />
      <path
         style="fill:#d7f5fd"
         d="m 104.38065,1.9095893 c -4.18171,2.5499126 -5.37966,6.5512801 -5.385824,17.9896337 -0.0028,5.280427 -0.293232,13.950463 -0.645303,19.266745 l -0.64013,9.665968 -3.50516,0.657572 c -1.927837,0.361665 -4.787451,1.939864 -6.354696,3.507109 L 85,55.846154 l 0.0037,18.326923 c 0.0044,21.689924 0.740136,23.978225 8.323136,25.887643 l 4.382265,1.10347 0.640257,9.66791 c 0.836737,12.63477 0.832136,159.77033 -0.0054,172.4179 L 97.698354,293 h -2.949177 c -2.020633,0 -4.019662,1.07049 -6.349177,3.4 l -3.4,3.4 v 18.7 18.7 l 3.4,3.4 c 2.33393,2.33393 4.327378,3.4 6.357673,3.4 h 2.957674 l 0.709985,11.22027 c 2.416658,38.19169 7.479578,42.50634 69.004558,58.80603 53.55785,14.18896 50.00459,11.96129 49.38131,30.95898 l -0.3112,9.48528 -3.83341,0.62086 c -2.18919,0.35456 -4.97717,1.76368 -6.5,3.28527 l -2.66659,2.6644 -0.30743,21.1337 C 202.71608,514.93048 197.52748,512 256,512 c 58.54001,0 53,3.01641 53,-28.85734 v -21.98881 l -2.9577,-2.9577 c -1.62673,-1.62673 -4.55173,-3.25674 -6.5,-3.62224 L 296,453.90937 v -11.02042 c 0,-16.91228 -4.80906,-14.06907 47.22613,-27.921 62.61788,-16.66908 68.22028,-21.21908 70.27532,-57.07416 l 0.72252,-12.60622 4.55925,-1.39378 C 432.60599,339.66809 432.5705,297.38584 418.7405,293 l -4.73,-1.5 -0.0662,-6.5 c -0.0786,-7.717 -0.0774,-167.48207 0.001,-177.25 L 414,101 h 3.01469 c 2.03744,0 4.22553,-1.108899 6.75,-3.420823 L 427.5,94.158355 427.81404,76.615251 C 428.20712,54.656095 425.94053,49 416.74767,49 414.02637,49 413,40.480366 413,17.89149 413,6.9648483 411.92699,3.5307275 407.85497,1.4250045 402.9202,-1.1268673 108.58951,-0.65688297 104.38065,1.9095893 Z"
         id="path29" />
      <path
         style="fill:#c8f1fc"
         d="M 103.4,3.4 100,6.8 99.894113,19.15 c -0.05824,6.7925 -0.395738,16.394004 -0.75,21.336676 L 98.5,49.473352 94.666587,50.092816 C 80.91734,52.314639 80.063825,96.19029 93.705325,99.507297 c 2.278431,0.554013 4.441251,1.305943 4.806267,1.670963 0.856574,0.85657 0.873394,189.3898 0.01702,190.77545 C 98.172957,292.52917 97.189032,293 96.342112,293 87.479732,293 85,298.58967 85,318.56675 c 0,20.28294 0.777051,22.13831 10.5,25.071 l 3,0.90488 0.784895,12.47868 c 2.265945,36.02521 7.584745,40.42509 68.215105,56.42971 53.50227,14.12302 49.72931,11.85422 49.28391,29.63594 l -0.28391,11.33452 -3,0.61561 C 203.83849,457.01967 203,459.29655 203,483.54921 203,514.51386 198.24009,512 256.87066,512 314.3593,512 309,514.93354 309,483.46574 V 461.8 l -3.4,-3.4 c -2.03691,-2.03691 -4.39328,-3.4 -5.87756,-3.4 -4.25993,0 -4.93694,-1.99387 -4.56452,-13.44297 0.49971,-15.36206 -2.86191,-13.4512 46.92265,-26.67243 63.56621,-16.88122 69.26888,-21.42134 70.80479,-56.37041 l 0.61464,-13.98582 3.94274,-0.6381 c 8.88023,-1.43718 11.16806,-8.11683 10.33514,-30.17501 C 427.17113,297.64673 425.51309,294.46752 417,293.04919 l -3.5,-0.58312 v -95.32521 -95.3252 l 4.91863,-1.65783 c 13.96861,-4.70813 13.96861,-45.611013 0,-50.313765 L 413.5,48.18813 413,27.009838 412.5,5.8315454 409.23422,2.9157727 405.96845,0 H 256.38422 106.8 Z"
         id="path28" />
      <path
         style="fill:#aceafb"
         d="M 107,0.73559052 C 101.98858,2.6656425 100.00248,8.0925072 99.995452,19.875 c -0.0025,4.19375 -0.294159,12.650863 -0.64813,18.793585 l -0.643583,11.168584 -4.275485,1.07658 C 86.571513,52.892099 86,54.539729 86,75.211782 v 17.942064 l 2.923077,2.923077 C 90.862409,98.016255 92.861813,99 94.86406,99 c 4.534833,0 4.345363,-4.262205 4.334918,97.51583 C 99.188936,294.38121 99.201492,294 95.988036,294 87.701251,294 86,298.17306 86,318.5 c 0,20.68029 1.644355,24.5 10.547053,24.5 2.338899,0 2.454421,0.29059 2.484657,6.25 0.207707,40.93825 7.61589,47.6168 71.46764,64.42878 34.37941,9.05199 41.48385,11.22754 44,13.47381 L 217.5,429.8314 v 12.29892 12.29892 l -4.08874,0.81234 c -2.50935,0.49855 -5.21328,1.98528 -7,3.84889 l -2.91126,3.03655 -0.33225,19.18649 c -0.57599,33.26166 -5.05018,30.6779 53.13191,30.68275 57.81861,0.005 52.70034,2.73322 52.70034,-28.09297 0,-24.64742 -0.81129,-26.87779 -10.5,-28.86631 l -3,-0.61572 -0.28212,-11.75543 c -0.40732,-16.97181 -3.94591,-14.82715 46.28212,-28.05051 65.2294,-17.1727 71.29198,-22.6324 71.4729,-64.36532 0.0243,-5.60737 0.23604,-6.25 2.05922,-6.25 C 424.81338,344 427,339.34096 427,318.5 427,298.08349 424.82879,293 416.10868,293 c -3.30343,0 -3.26815,1.03836 -3.27878,-96.48334 C 412.81892,95.843385 412.63747,100 417.04324,100 c 1.81916,0 4.16003,-1.103311 6.19098,-2.917971 L 426.5,94.164058 V 75.104756 56.045455 l -2.66659,-2.666588 c -1.52553,-1.525537 -4.30693,-2.93166 -6.5,-3.286051 L 413.5,49.473352 412.85589,40.486676 C 412.50163,35.544004 412.15412,25.875 412.08365,19 411.94726,5.6931008 411.29215,3.6620001 406.31574,1.11704 404.01505,-0.05954287 110.03736,-0.43418949 107,0.73559052 Z"
         id="path27" />
      <path
         style="fill:#98e5fa"
         d="m 107.5,1 c -1.1,0.4726862 -1.63741,0.8910578 -1.19424,0.9297147 0.44317,0.038657 -0.4409,1.1426276 -1.96462,2.4532681 -2.71202,2.3327831 -2.7878,2.6961706 -3.59743,17.2500002 -0.45488,8.176859 -1.067284,18.084652 -1.360899,22.017318 l -0.533846,7.1503 -4.408173,1.109991 c -7.243674,1.823978 -7.618716,3.063559 -7.254783,23.978346 0.352202,20.240633 0.577598,20.902763 7.496086,22.020805 L 98.5,98.526724 l 0.853468,8.486636 c 0.469407,4.66765 0.792332,12.31164 0.717602,16.98664 -0.948109,59.31419 -0.953854,134.8113 -0.0104,136.59219 0.68219,1.28772 0.89945,4.94058 0.56501,9.5 -0.29884,4.0743 -0.833057,11.34531 -1.187135,16.15781 l -0.643777,8.75 -2.974307,0 c -1.954059,0 -3.976983,1.00268 -5.897384,2.92308 L 87,300.84615 v 17.44207 c 0,20.07798 0.714974,22.16285 7.999892,23.32775 l 3.855112,0.61646 0.470202,7.63379 c 2.544364,41.30801 7.496084,45.75856 69.149844,62.15103 C 222.74654,426.44692 219,424.12573 219,443.32029 v 11.41961 l -4.62164,0.52092 c -3.42284,0.3858 -5.43311,1.33186 -7.75,3.64724 l -3.12836,3.12631 -0.33225,19.23281 c -0.57554,33.31593 -5.0567,30.72423 53.13191,30.72908 57.81861,0.005 52.70034,2.73322 52.70034,-28.09297 0,-24.90433 -0.86568,-27.17501 -11,-28.85316 l -3.5,-0.57957 -0.28757,-9.23888 c -0.60751,-19.51751 -3.30201,-17.75541 48.00646,-31.39448 50.65723,-13.46594 52.19726,-14.10048 60.88202,-25.08511 5.90139,-7.46419 7.92668,-14.19747 9.24476,-30.73527 l 1.15433,-14.48317 3.82738,-0.62199 c 7.87032,-1.27899 9.61522,-5.78668 9.64319,-24.91166 0.0264,-18.02505 -2.47476,-24 -10.04641,-24 -1.54337,0 -3.10099,-0.47709 -3.46137,-1.06021 -0.5005,-0.80983 -0.90505,-143.3523 -0.52664,-185.56198 l 0.0639,-7.12219 3.85175,-0.615923 c 8.80801,-1.408458 10.6965,-6.977445 9.97282,-29.409042 C 426.30968,54.270633 423.90916,50 415.45295,50 413.20733,50 412.99155,49.598524 412.9,45.25 412.845,42.6375 412.5075,32.700309 412.15,23.167354 L 411.5,5.8347087 408.23422,2.9173544 404.96845,0 257.23422,0.07028526 C 175.9804,0.10894216 108.6,0.52731379 107.5,1 Z"
         id="path26" />
      <path
         style="fill:#b5d1ee"
         d="m 371,1 c 2.09557,0.6711197 2.17646,0.8216845 0.5,0.9307287 l -2,0.1300887 2,1.093915 c 4.08969,2.236887 4.5,3.7899406 4.5,17.0328646 V 32.992934 L 238.25,33.246467 100.5,33.5 100.21261,42.739893 99.925216,51.979786 243.04928,52.239893 386.17334,52.5 l 2.41333,2.805764 c 3.48362,4.050089 3.75331,34.721013 0.34342,39.055981 L 386.86018,96.993208 243.68009,97.246604 100.5,97.5 l -0.29862,7.48822 c -0.16424,4.11853 -0.0432,8.50603 0.26905,9.75 L 101.0381,117 H 238.51905 376 v 7 7 H 239.07143 c -123.14719,0 -137.08673,0.15816 -138.5,1.57143 -2.610992,2.61099 -2.363637,126.40166 0.25731,128.77358 1.68289,1.52299 12.72927,1.65499 138.5,1.65499 L 376,263 v 6.5 6.5 H 239.2 c -105.06667,0 -137.07836,0.27836 -138,1.2 -0.75152,0.75152 -1.2,4.48889 -1.2,10 v 8.8 l 143.04545,0 143.04546,0 2.45454,2.45455 C 390.96353,300.87262 391,301.16779 391,318.31818 v 17.40909 l -2.63636,2.63637 L 385.72727,341 242.86364,341 H 100 l 0,8.8 c 0,5.51111 0.44848,9.24848 1.2,10 0.92164,0.92164 32.93333,1.2 138,1.2 l 136.8,0 v 4.5 c 0,3.08768 -0.5963,5.0963 -1.89996,6.39996 -2.24284,2.24284 -0.61123,1.76382 -56.56071,16.6053 -60.92268,16.1607 -58.52321,14.20351 -58.53375,47.74474 L 259,454 l -18.75,0.006 c -23.5254,0.007 -29.62779,0.91117 -33.71301,4.99364 l -3.03699,3.03494 -0.33225,19.23281 c -0.57554,33.31593 -5.0567,30.72423 53.13191,30.72908 57.81861,0.005 52.70034,2.73322 52.70034,-28.09297 0,-24.90429 -0.86526,-27.17392 -11,-28.8537 l -3.5,-0.58011 -0.26384,-10.98474 c -0.4454,-18.54357 -4.31677,-16.13553 48.26384,-30.02077 62.53089,-16.51286 69.38935,-22.34989 69.47989,-59.13218 C 412.00399,344.54241 412.49128,343 415.55994,343 424.39984,343 426,339.16575 426,317.98392 426,297.83163 424.41978,294 416.10868,294 c -3.4268,0 -3.43521,-0.2387 -3.43521,-97.5 0,-100.923756 -0.1567,-97.5 4.46247,-97.5 2.00225,0 4.00165,-0.983745 5.94098,-2.923077 L 426,93.153846 V 75.153648 c 0,-20.770057 -0.89407,-23.241467 -8.8693,-24.516757 -5.12065,-0.818825 -5.12977,-0.856958 -5.13628,-21.468678 -0.009,-29.47475757 0.22237,-29.20940812 -25.37928,-29.06853297 C 375.98121,0.15819408 369.53245,0.53000927 371,1 Z"
         id="path25" />
      <path
         style="fill:#94e3fa"
         d="m 371,1 c 2.09557,0.6711197 2.17646,0.8216845 0.5,0.9307287 l -2,0.1300887 2,1.093915 c 4.08969,2.236887 4.5,3.7899406 4.5,17.0328646 V 32.992934 L 238.25,33.246467 100.5,33.5 100.21261,42.739893 99.925216,51.979786 243.04928,52.239893 386.17334,52.5 l 2.41333,2.805764 c 3.48362,4.050089 3.75331,34.721013 0.34342,39.055981 L 386.86018,96.993208 243.68009,97.246604 100.5,97.5 l -0.29862,7.48822 c -0.16424,4.11853 -0.0432,8.50603 0.26905,9.75 L 101.0381,117 H 238.51905 376 v 7 7 H 239.2 c -105.06667,0 -137.07836,0.27836 -138,1.2 -1.584735,1.58474 -1.743751,125.91547 -0.16482,128.86574 1.01572,1.89789 3.61036,1.93426 138,1.93426 H 376 v 6.5 6.5 H 239.2 c -105.06667,0 -137.07836,0.27836 -138,1.2 -0.75152,0.75152 -1.2,4.48889 -1.2,10 v 8.8 l 143.04545,0 143.04546,0 2.45454,2.45455 C 390.96353,300.87262 391,301.16779 391,318.31818 v 17.40909 l -2.63636,2.63637 L 385.72727,341 242.86364,341 H 100 l 0,8.8 c 0,5.51111 0.44848,9.24848 1.2,10 0.92164,0.92164 32.93333,1.2 138,1.2 l 136.8,0 v 4.5 c 0,3.08768 -0.5963,5.0963 -1.89996,6.39996 -2.24284,2.24284 -0.61123,1.76382 -56.56071,16.6053 -60.9142,16.15845 -58.52321,14.20978 -58.53375,47.70537 l -0.006,17.71064 -20.25,0.37032 c -22.52422,0.41191 -27.75477,1.25863 -31.61381,5.11767 L 204.5,462.04545 v 22.05931 22.0593 l 3.26578,2.91797 3.26577,2.91797 h 44.53389 C 313.38079,512 308,514.90406 308,483.7006 c 0,-24.69954 -0.26839,-25.55348 -8.8133,-28.04176 l -4.6867,-1.36477 -0.26384,-10.89703 c -0.44648,-18.44038 -4.29492,-16.0536 48.26384,-29.93307 62.53089,-16.51286 69.38935,-22.34989 69.47989,-59.13218 C 412.00399,344.54241 412.49128,343 415.55994,343 424.39984,343 426,339.16575 426,317.98392 426,297.83163 424.41978,294 416.10868,294 c -3.4281,0 -3.43796,-0.26922 -3.54922,-96.92284 C 412.44445,97.170407 412.35952,99 417.11211,99 c 2.02859,0 4.01536,-0.973626 5.96481,-2.923077 L 426,93.153846 V 75.153648 c 0,-20.770057 -0.89407,-23.241467 -8.8693,-24.516757 -5.12065,-0.818825 -5.12977,-0.856958 -5.13628,-21.468678 -0.009,-29.47475757 0.22237,-29.20940812 -25.37928,-29.06853297 C 375.98121,0.15819408 369.53245,0.53000927 371,1 Z"
         id="path24" />
      <path
         style="fill:#88e2fa"
         d="m 371,0.65693634 c 4.86573,1.59603446 6.48514,6.21798336 6.85042,19.55174966 L 378.20085,33 H 240.22287 c -117.2902,0 -138.15284,0.21069 -139.1442,1.405204 -0.73186,0.881846 -1.0568,4.326938 -0.87244,9.25 L 100.5,51.5 l 143.68008,0.253384 143.68008,0.253385 2.06992,2.631474 c 3.04632,3.872767 3.17497,36.775458 0.15835,40.500973 L 388.17687,97.5 244.33843,98 100.5,98.5 l -0.29377,7.8448 c -0.18436,4.92306 0.14058,8.36815 0.87244,9.25 C 102.07002,116.7893 122.9185,117 240.12244,117 H 378 v 7 7 H 240.2 c -105.84444,0 -138.07828,0.27828 -139,1.2 -1.388904,1.3889 -1.756303,126.37572 -0.37786,128.54645 0.62447,0.9834 29.90282,1.29996 138.73468,1.5 L 377.5,262.5 v 7 7 L 239,277 l -138.5,0.5 -0.28893,8.75 -0.288936,8.75 H 241.81184 c 149.19678,0 146.92393,-0.0701 149.05032,4.59683 2.46981,5.42063 1.47561,35.89893 -1.27536,39.09741 l -2.41319,2.80576 -143.62527,0.28237 -143.625261,0.28237 0.288461,8.71763 L 100.5,359.5 239,360 l 138.5,0.5 -0.17495,4.90223 c -0.33017,9.25151 5.18537,7.10297 -68.22582,26.57682 -49.98484,13.25952 -48.40165,11.87672 -48.92521,42.73277 l -0.32598,19.21182 -20.67402,0.3683 c -22.93767,0.40863 -28.16391,1.2434 -32.03783,5.11732 L 204.5,462.04545 v 22.05931 22.0593 l 3.26578,2.91797 3.26577,2.91797 h 44.53389 C 313.38079,512 308,514.90406 308,483.7006 c 0,-24.69948 -0.26837,-25.55339 -8.8133,-28.04187 l -4.6867,-1.36488 -0.28232,-11.71461 -0.28232,-11.7146 3.28232,-3.23738 c 3.06621,-3.02424 5.98173,-3.94689 44.28232,-14.01368 61.80899,-16.24567 67.56747,-20.58486 69.73797,-52.5496 1.25318,-18.45556 1.01802,-17.68939 5.65724,-18.43123 C 424.91806,341.34984 426,338.52649 426,318.87361 426,297.79442 424.39398,294 415.472,294 c -3.23893,0 -3.50905,-1.47807 -3.47222,-19 0.0404,-19.21529 0.073,-137.19226 0.0435,-157.40962 C 412.01821,100.41548 412.4007,99 417.06668,99 c 1.55199,0 4.08439,-1.085085 5.62756,-2.411299 l 2.80576,-2.4113 0.312,-18.603623 0.312,-18.603623 -2.98508,-2.985078 C 421.17263,52.018783 419.14551,51 417.19937,51 412.38509,51 412.09214,49.806949 411.36722,27.247834 410.71128,6.8356059 410.60992,6.0537393 408.26559,3.3229976 L 405.84206,0.5 387.67103,0.33245654 C 377.67696,0.24030764 370.175,0.38632355 371,0.65693634 Z"
         id="path23" />
      <path
         style="fill:#92dcf6"
         d="m 372.6917,1.0095965 c 4.54726,1.8316465 9.86808,29.6781385 6.15872,32.2316325 -0.19273,0.132676 -62.90042,0.470176 -139.35042,0.75 L 100.5,34.5 l -0.29028,8.23996 -0.29028,8.23996 144.12695,0.26004 144.12695,0.26004 2.41333,2.805764 c 3.7482,4.357698 3.74822,37.030736 2e-5,41.388472 L 388.17338,98.5 244.04647,98.763318 99.919546,99.026636 100.20977,107.26332 100.5,115.5 l 139,0.5 139,0.5 0.29381,7.25 0.29381,7.25 H 240.74381 C 134.4764,131 102.12177,131.27823 101.2,132.2 99.928365,133.47164 99.356309,257.15899 100.60699,260.41821 101.15645,261.85009 114.38108,262 240.1508,262 l 138.93682,0 -0.29381,7.25 -0.29381,7.25 -137.90181,0.25354 c -102.23212,0.18797 -138.26069,0.5514 -139.28927,1.40504 -1.01229,0.84013 -1.309247,3.20518 -1.09819,8.74646 L 100.5,294.5 245,295.00844 c 79.475,0.27965 144.60094,0.61715 144.72432,0.75 4.77974,5.14699 4.77974,40.33613 0,45.48312 -0.12338,0.13285 -65.24932,0.47035 -144.72432,0.75 L 100.5,342.5 l -0.28927,7.59496 c -0.211057,5.54128 0.0859,7.90633 1.09819,8.74646 1.02858,0.85364 37.05715,1.21707 139.28927,1.40504 L 378.5,360.5 l 0.3094,2.17254 c 0.54767,3.84563 -1.77638,10.25972 -4.32176,11.92752 -2.49623,1.63559 -6.28914,2.70168 -65.38841,18.37899 -49.43518,13.11372 -48.08333,11.88444 -48.09365,43.73306 l -0.006,17.21212 -21.25,0.36721 c -23.50221,0.40612 -28.72106,1.22508 -32.61381,5.11782 L 204.5,462.04545 v 22.05931 22.0593 l 3.26578,2.91797 3.26577,2.91797 h 44.53389 C 313.38079,512 308,514.90406 308,483.7006 c 0,-24.69948 -0.26837,-25.55339 -8.8133,-28.04187 l -4.6867,-1.36488 -0.28179,-11.65327 c -0.43696,-18.07031 -4.27814,-15.70794 48.28179,-29.69377 63.4688,-16.8886 69.35537,-22.22568 69.48267,-62.99681 0.0195,-6.25143 1.14395,-7.95 5.26278,-7.95 7.31516,0 9.08597,-5.52008 8.59816,-26.80266 -0.39372,-17.17758 -0.85911,-18.26944 -8.76696,-20.56847 L 412.5,293.29831 411.62213,279.39916 c -0.61558,-9.74635 -0.54089,-15.17327 0.25,-18.16351 1.57191,-5.94321 1.57742,-122.49807 0.006,-128.4713 -0.78411,-2.98068 -0.85937,-8.62503 -0.25,-18.75049 l 0.8718,-14.48614 3.83341,-0.62 c 8.04698,-1.301484 9.12076,-3.75296 9.4951,-21.677682 C 426.28181,55.52469 425.1712,52.566549 416,51.051516 l -3.5,-0.578181 -0.63807,-9.486668 C 411.51099,35.769 411.17349,26.127846 411.11193,19.56188 410.99145,6.7116148 409.30601,1.8562937 404.51923,0.56993829 400.98233,-0.38053502 370.29302,0.04340011 372.6917,1.0095965 Z"
         id="path22" />
      <path
         style="fill:#8cd8f5"
         d="m 372.6917,1.0095965 c 4.54726,1.8316465 9.86808,29.6781385 6.15872,32.2316325 -0.19273,0.132676 -62.90042,0.470176 -139.35042,0.75 L 100.5,34.5 l -0.29028,8.23996 -0.29028,8.23996 144.12695,0.26004 144.12695,0.26004 2.41333,2.805764 c 3.7482,4.357698 3.74822,37.030736 2e-5,41.388472 L 388.17338,98.5 244.04647,98.763318 99.919546,99.026636 100.20977,107.26332 100.5,115.5 l 139,0.5 139,0.5 0.29935,6.91048 c 0.40529,9.35611 13.44553,8.55714 -139.94236,8.57421 -124.58096,0.0139 -137.70061,0.16542 -138.25,1.5971 -1.250507,3.25876 -0.678614,125.94659 0.59301,127.21821 0.92177,0.92177 33.2764,1.2 139.54381,1.2 h 138.34381 l -0.29381,7.25 -0.29381,7.25 -137.90181,0.25354 c -102.23212,0.18797 -138.26069,0.5514 -139.28927,1.40504 -1.01229,0.84013 -1.309247,3.20518 -1.09819,8.74646 L 100.5,294.5 245,295.00844 c 79.475,0.27965 144.60094,0.61715 144.72432,0.75 4.77974,5.14699 4.77974,40.33613 0,45.48312 -0.12338,0.13285 -65.24932,0.47035 -144.72432,0.75 L 100.5,342.5 l -0.28927,7.59496 c -0.211057,5.54128 0.0859,7.90633 1.09819,8.74646 1.02858,0.85364 37.05715,1.21707 139.28927,1.40504 L 378.5,360.5 l 0.3094,2.17254 c 0.54767,3.84563 -1.77638,10.25972 -4.32176,11.92752 -2.49623,1.63559 -6.28914,2.70168 -65.38841,18.37899 -36.49991,9.68237 -38.12206,10.24636 -42.22704,14.68167 -5.0775,5.4861 -5.34362,6.72506 -5.87219,27.33928 l -0.5,19.5 -24.17838,0.50128 c -33.80467,0.70086 -32.48009,-0.55132 -32.08688,30.3327 l 0.26526,20.83397 3.26578,2.91603 3.26577,2.91602 h 44.53389 C 313.38079,512 308,514.90406 308,483.7006 c 0,-24.69948 -0.26837,-25.55339 -8.8133,-28.04187 l -4.6867,-1.36488 -0.28179,-11.65327 c -0.43696,-18.07031 -4.27814,-15.70794 48.28179,-29.69377 63.4688,-16.8886 69.35537,-22.22568 69.48267,-62.99681 0.0195,-6.25143 1.14395,-7.95 5.26278,-7.95 7.31516,0 9.08597,-5.52008 8.59816,-26.80266 -0.39372,-17.17751 -0.85902,-18.26917 -8.76696,-20.5688 l -4.57665,-1.3309 -0.8747,-13.39882 c -0.60431,-9.25702 -0.52703,-15.11757 0.25,-18.95902 1.56272,-7.72565 1.56531,-122.23619 0.003,-128.17545 -0.78411,-2.98068 -0.85937,-8.62503 -0.25,-18.75049 l 0.8718,-14.48614 3.83341,-0.62 c 8.04698,-1.301484 9.12076,-3.75296 9.4951,-21.677682 C 426.28181,55.52469 425.1712,52.566549 416,51.051516 l -3.5,-0.578181 -0.63807,-9.486668 C 411.51099,35.769 411.17349,26.127846 411.11193,19.56188 410.99145,6.7116148 409.30601,1.8562937 404.51923,0.56993829 400.98233,-0.38053502 370.29302,0.04340011 372.6917,1.0095965 Z"
         id="path21" />
      <path
         style="fill:#77e0fa"
         d="m 372.6917,1.0095965 c 4.54726,1.8316465 9.86808,29.6781385 6.15872,32.2316325 -0.19273,0.132676 -62.90042,0.470176 -139.35042,0.75 L 100.5,34.5 l -0.29028,8.23996 -0.29028,8.23996 144.12695,0.26004 144.12695,0.26004 2.41333,2.805764 c 3.7482,4.357698 3.74822,37.030736 2e-5,41.388472 L 388.17338,98.5 244.04647,98.763318 99.919546,99.026636 100.20977,107.26332 100.5,115.5 l 139,0.5 139,0.5 0.29066,7.09381 c 0.2098,5.12038 -0.0957,7.41447 -1.09819,8.24646 -1.03042,0.85517 -36.97868,1.21808 -139.29066,1.40619 L 100.5,133.5 l -0.25746,63.25 c -0.1416,34.7875 -0.1416,63.35855 0,63.49123 0.1416,0.13268 62.80746,0.47018 139.25746,0.75 l 139,0.50877 v 7.5 7.5 l -137.90181,0.25354 c -102.23212,0.18797 -138.26069,0.5514 -139.28927,1.40504 -1.01229,0.84013 -1.309247,3.20518 -1.09819,8.74646 L 100.5,294.5 245,295.00844 c 79.475,0.27965 144.60094,0.61715 144.72432,0.75 4.77974,5.14699 4.77974,40.33613 0,45.48312 -0.12338,0.13285 -65.24932,0.47035 -144.72432,0.75 L 100.5,342.5 l -0.28927,7.59496 c -0.211057,5.54128 0.0859,7.90633 1.09819,8.74646 1.02858,0.85364 37.05715,1.21707 139.28927,1.40504 L 378.5,360.5 l 0.3094,2.17254 c 0.54767,3.84563 -1.77638,10.25972 -4.32176,11.92752 -2.49623,1.63559 -6.28914,2.70168 -65.38841,18.37899 -36.49991,9.68237 -38.12206,10.24636 -42.22704,14.68167 -5.09431,5.50425 -5.34333,6.68483 -5.87219,27.83928 l -0.5,20 -25.22927,0.5 -25.22927,0.5 -2.77073,2.77273 -2.77073,2.77272 v 22.05931 22.0593 l 3.26578,2.91797 3.26577,2.91797 h 44.53389 C 313.4064,512 308,514.93972 308,483.48882 v -21.64267 l -2.80167,-2.80167 c -1.72718,-1.72717 -4.41182,-3.0737 -7,-3.51097 L 294,454.8242 v -12.27724 c 0,-18.53221 -5.67239,-15.26611 54,-31.09267 57.22815,-15.17829 63.85792,-21.55125 63.98267,-61.50429 0.0195,-6.25143 1.14395,-7.95 5.26278,-7.95 7.31516,0 9.08597,-5.52008 8.59816,-26.80266 -0.3899,-17.01085 -0.90787,-18.28904 -8.25641,-20.37455 -2.24796,-0.63797 -4.46665,-1.48603 -4.93042,-1.88459 -0.97675,-0.83939 -1.16262,-191.31072 -0.18822,-192.88732 C 412.82577,99.472894 414.43438,99 416.04324,99 c 1.81797,0 4.16135,-1.103569 6.19098,-2.915525 L 425.5,93.168951 425.82851,77.334475 C 426.28122,55.513398 425.17978,52.567965 416,51.051516 l -3.5,-0.578181 -0.63807,-9.486668 C 411.51099,35.769 411.17349,26.127846 411.11193,19.56188 410.99145,6.7116148 409.30601,1.8562937 404.51923,0.56993829 400.98233,-0.38053502 370.29302,0.04340011 372.6917,1.0095965 Z"
         id="path20" />
      <path
         style="fill:#74def9"
         d="m 375.62952,3.429516 3.42951,3.429516 -0.27951,13.320484 L 378.5,33.5 l -139,0.5 -139,0.5 v 8 8 l 144,0.5 c 79.22848,0.275099 144.60815,0.892262 145.35203,1.372077 5.96836,3.849662 5.96836,41.406184 0,45.255846 C 389.10815,98.107738 323.72848,98.724901 244.5,99 l -144,0.5 -0.29066,7.09381 c -0.209796,5.12038 0.0957,7.41447 1.09819,8.24646 1.03042,0.85517 36.97868,1.21808 139.29066,1.40619 L 378.5,116.5 l 0.29066,7.09381 c 0.2098,5.12038 -0.0957,7.41447 -1.09819,8.24646 -1.03042,0.85517 -36.97868,1.21808 -139.29066,1.40619 L 100.5,133.5 l -0.25746,63.25 c -0.1416,34.7875 -0.1416,63.35855 0,63.49123 0.1416,0.13268 62.80746,0.47018 139.25746,0.75 l 139,0.50877 0.29206,7.75 0.29207,7.75 -138.41962,0 c -117.89238,0 -138.59316,0.2091 -139.58981,1.40999 -0.71543,0.86204 -1.05448,4.06812 -0.87244,8.25 L 100.5,293.5 244,294 c 78.925,0.275 144.25274,0.87231 145.17276,1.32735 5.70949,2.82392 7.24533,38.41218 1.90293,44.09422 L 388.65137,342 l -143.07568,0.0153 c -160.04843,0.0171 -145.771443,-0.8739 -145.37277,9.0728 L 100.5,358.5 l 139,0.50877 c 76.45,0.27982 139.1125,0.61732 139.25,0.75 0.9774,0.94311 -0.0648,9.96565 -1.41527,12.25173 -2.3681,4.00887 -2.20146,3.95387 -51.83473,17.10952 -54.72535,14.50535 -53.27549,14.0372 -57.75624,18.64916 C 262.41024,413.25887 262,415.22988 262,435.3651 262,458.26217 264.92535,456 235.31578,456 h -24.28423 l -3.26577,2.91797 -3.26578,2.91797 V 484 506.16406 l 3.26578,2.91797 3.26577,2.91797 44.53389,0 C 313.3904,512 308,514.91738 308,483.62151 c 0,-24.94627 -0.23303,-25.63261 -9.5,-27.98064 l -5,-1.26688 -0.3112,-9.437 c -0.65543,-19.87578 -2.84208,-18.42807 48.341,-32.00494 63.50772,-16.84612 67.84735,-20.49859 70.26504,-59.139 0.63965,-10.22318 0.89096,-11.29807 2.70516,-11.57054 10.45481,-1.57018 10.5,-1.67249 10.5,-23.76796 0,-20.66645 -0.90807,-23.43263 -7.70455,-23.46986 -5.82827,-0.0319 -5.46951,6.36568 -5.48324,-97.78114 -0.0139,-105.214893 -0.40587,-97.758507 5.18906,-98.703765 12.49725,-2.111396 12.24221,-44.759197 -0.2824,-47.224994 L 412.5,50.444197 411.85589,41.472098 c -0.35426,-4.934654 -0.69176,-14.281945 -0.75,-20.771758 C 411.00119,9.0330069 409.57286,3 406.9153,3 406.34697,3 406.12846,2.6011606 406.42974,2.1136901 407.4053,0.53519362 402.79335,0.02757377 387.35,0.01365468 L 372.2,0 Z"
         id="path19" />
      <path
         style="fill:#61daf9"
         d="m 374.22319,1.2899932 c 4.69629,1.857748 5.87461,6.0823807 5.55786,19.9265628 L 379.5,33.5 241.09821,33.753532 c -100.26662,0.183674 -138.77328,0.561837 -139.75,1.372445 -2.050751,1.70197 -1.855475,14.46539 0.23358,15.267034 C 102.45177,50.726855 167.37664,51 245.85928,51 c 158.52148,0 146.05494,-0.570687 148.09628,6.779483 1.26714,4.562549 1.33355,28.268563 0.0942,33.611227 C 392.24321,99.178052 406.63468,98.44228 245.21441,99 L 100.5,99.5 l -0.29066,7.09381 c -0.209797,5.12041 0.0957,7.41447 1.09821,8.24647 1.0305,0.85524 37.1003,1.21807 139.79066,1.40619 L 379.5,116.5 l 0.29066,7.09381 c 0.2098,5.12041 -0.0957,7.41447 -1.09821,8.24647 -1.0305,0.85524 -37.1003,1.21807 -139.79066,1.40619 L 100.5,133.5 l -0.25746,63.25 c -0.1416,34.7875 -0.1416,63.35857 0,63.49126 0.1416,0.13269 63.03246,0.47019 139.75746,0.75 l 139.5,0.50874 0.29066,7.09381 c 0.2098,5.12041 -0.0957,7.41447 -1.09821,8.24647 -1.0305,0.85524 -37.1003,1.21807 -139.79066,1.40619 L 100.5,278.5 v 7.5 7.5 l 144,0.5 c 79.2,0.275 144.72423,0.86137 145.60941,1.30304 6.43531,3.211 6.47758,43.18938 0.049,46.3751 C 389.2463,342.13017 323.7,342.725 244.5,343 l -144,0.5 v 7.5 7.5 l 139.5,0.50874 c 76.725,0.27981 139.6125,0.61731 139.75,0.75 0.90754,0.87581 -0.0201,9.86293 -1.26693,12.27399 -2.28585,4.42035 -3.65265,4.88722 -51.00037,17.42055 -57.42184,15.20003 -53.94938,14.13956 -58.02933,17.7218 -6.4138,5.63139 -6.82994,7.25224 -7.27226,28.32492 -0.48042,22.88732 2.70105,20.46597 -26.91533,20.48469 L 211.03155,456 207.76578,458.91797 204.5,461.83594 V 484 506.16406 l 3.26578,2.91797 3.26577,2.91797 44.53389,0 C 313.4064,512 308,514.93972 308,483.48882 v -21.64267 l -2.83742,-2.83742 c -1.9268,-1.9268 -4.33381,-3.06182 -7.5,-3.53662 L 293,454.77291 l 0.004,-11.63645 c 0.006,-19.37335 -3.87691,-16.89907 47.99626,-30.58261 64.76183,-17.08341 68.08719,-20.01059 70.64675,-62.18726 l 0.49359,-8.13341 3.80997,-0.60924 c 8.28925,-1.32551 8.54969,-2.02403 8.54969,-22.9306 0,-21.02442 -0.31027,-21.94795 -7.87391,-23.4369 L 412.5,294.4442 l -0.84175,-8.9721 c -0.46296,-4.93466 -0.78019,-12.4596 -0.70494,-16.7221 0.15426,-8.7392 0.18913,-132.53072 0.0407,-144.5 -0.0529,-4.2625 0.26436,-11.79414 0.70494,-16.73698 L 412.5,98.526045 416.44324,97.889031 C 424.139,96.645813 425,94.392094 425,75.491289 c 0,-20.503823 -0.95774,-22.893737 -9.5,-23.70602 l -3,-0.285269 -0.77653,-9 c -0.42709,-4.95 -1.10209,-15.228757 -1.5,-22.841681 -0.67437,-12.9023061 -0.88369,-13.971191 -3.08425,-15.7500003 -1.29844,-1.0495753 -1.97344,-1.9399471 -1.5,-1.978604 C 406.11265,1.8910578 405.6,1.4726862 404.5,1 403.4,0.52731379 395.525,0.15681345 387,0.17666592 c -12.12078,0.0282261 -14.90631,0.270947 -12.77681,1.11332728 z"
         id="path18" />
      <path
         style="fill:#5bd9f9"
         d="M 379.58347,33.75 C 379.17104,34.1625 316.20854,34.725 239.6668,35 L 100.5,35.5 v 7 7 L 245,50.21252 c 79.475,0.391885 149.45,0.841885 155.5,1 l 11,0.28748 0.2935,-7.234468 C 412.2589,32.793701 412.56402,33 395.13148,33 c -8.13898,0 -15.13559,0.3375 -15.54801,0.75 z m 10.00013,65 c -0.41235,0.4125 -65.62485,0.975 -144.91666,1.25 L 100.5,100.5 v 7 7 l 139,0.70334 c 76.45,0.38684 145.96377,0.97296 154.47504,1.30248 C 412.46539,117.2217 412,117.49789 412,105.80887 V 98 h -10.83333 c -5.95834,0 -11.17071,0.3375 -11.58307,0.75 z m -10.00016,33 C 379.171,132.1625 316.2085,132.725 239.66677,133 L 100.5,133.5 l -0.25742,63.14016 c -0.21508,52.75685 -0.0318,63.22675 1.11452,63.66663 2.16338,0.83017 308.10764,1.14205 309.44511,0.31545 1.73409,-1.07173 1.73193,-126.6881 -0.002,-128.42224 -1.34401,-1.34401 -29.91093,-1.75582 -31.21656,-0.45 z m -112.07017,38.70491 c 15.83071,9.27741 15.21353,27.43055 -1.61219,47.41949 -9.9544,11.82583 -17.32669,8.47872 -29.02788,-13.17903 -12.2294,-22.63541 9.33048,-46.72871 30.64007,-34.24046 z M 380,277 c -0.94974,0.61377 -52.35983,0.97499 -140.14301,0.98469 -125.49283,0.0139 -138.70058,0.16534 -139.25,1.5971 -0.870419,2.26827 -0.720634,11.69107 0.20911,13.15489 0.61567,0.96935 32.01133,1.33801 145.23469,1.7054 79.44706,0.25779 149.17421,0.60129 154.94921,0.76332 l 10.5,0.2946 0.29184,-7.73756 c 0.45224,-11.99024 0.76015,-11.76526 -16.07702,-11.74713 C 387.89667,276.02373 380.825,276.46684 380,277 Z m 10,64.98296 c -1.375,0.44972 -66.91436,0.86254 -145.64301,0.91736 -129.54682,0.0902 -143.20067,0.24992 -143.75,1.68147 -1.150576,2.99835 -0.643379,12.14312 0.73703,13.28876 0.96853,0.80381 40.01263,1.24359 139.75,1.57412 76.12329,0.25228 145.24074,0.72769 153.59433,1.05647 18.0086,0.70878 17.56605,1.00022 17.10349,-11.26358 L 411.5,341.5 402,341.33264 c -5.225,-0.0921 -10.625,0.2006 -12,0.65032 z M 264,455.0419 c -3.025,0.41817 -16.1804,0.80481 -29.23422,0.8592 L 211.03155,456 207.76578,458.91797 204.5,461.83594 V 484 506.16406 l 3.26578,2.91797 3.26577,2.91797 h 44.53389 C 313.3904,512 308,514.91738 308,483.62151 308,453.95059 301.66425,449.8353 264,455.0419 Z"
         id="path17" />
      <path
         style="fill:#89b3e3"
         d="m 240.05683,34.749986 c -109.22873,0.202835 -138.61019,0.520115 -139.23469,1.503549 -1.005192,1.582958 -1.035965,10.86209 -0.0412,12.426248 1.17514,1.84779 310.00048,2.333259 310.70818,0.48843 0.69756,-1.818392 0.62049,-10.157352 -0.1194,-12.918213 -0.59729,-2.228783 -0.75511,-2.247676 -16.73634,-2.003549 -8.87335,0.135547 -78.4328,0.362138 -154.57654,0.503535 z m 4.00006,64.986003 c -112.41647,0.213785 -142.60997,0.533661 -143.23469,1.517451 -0.999237,1.57358 -1.038677,10.85819 -0.0527,12.40784 0.55425,0.87111 39.40477,1.24591 155.48638,1.5 l 154.74751,0.33872 0.5632,-3.00267 c 0.30976,-1.65147 0.42149,-5.25147 0.2483,-8 L 411.5,99.5 399,99.482551 c -6.875,-0.0096 -76.5994,0.10445 -154.94311,0.253438 z M 239.5,132.98322 100.5,133.5 l -0.25742,63.14016 c -0.21561,52.88631 -0.0337,63.22603 1.12037,63.66887 2.66731,1.02355 308.64551,1.08251 309.66835,0.0597 0.6298,-0.6298 0.8911,-23.81011 0.72623,-64.42623 L 411.5,132.5 395,132.48322 c -9.075,-0.009 -79.05,0.21577 -155.5,0.5 z m 27.53763,36.03598 c 17.60345,8.98061 16.7625,31.28857 -1.9226,51.00117 -9.6175,10.14636 -18.0167,6.01634 -28.55704,-14.04198 -12.70217,-24.17227 7.50777,-48.67857 30.47964,-36.95919 z M 241.5,277.74434 C 84.917225,278.02755 100,277.14757 100,286 c 0,8.75633 -16.741155,7.87964 156.73912,8.20803 127.72341,0.24178 154.32694,0.063 154.75,-1.03982 0.90649,-2.36308 0.54267,-12.24029 -0.5243,-14.23395 -0.96119,-1.796 -2.08701,-1.91664 -15.75,-1.6878 -8.09315,0.13556 -77.26482,0.3596 -153.71482,0.49788 z m 4.5,65.00003 C 84.349734,343.02737 100,342.14241 100,351 c 0,8.71895 -16.607571,7.85584 156.32866,8.1245 132.57087,0.20595 153.95387,0.0411 154.73469,-1.19276 1.02176,-1.61464 1.25871,-11.92889 0.32966,-14.34995 -0.50947,-1.32767 -2.31679,-1.54218 -11.25,-1.33522 -5.85365,0.13562 -75.21801,0.35962 -154.14301,0.4978 z m -10.72927,113.22185 -25.22927,0.53378 -2.77073,2.77273 -2.77073,2.77272 v 22.05931 22.0593 l 3.26578,2.91797 3.26577,2.91797 h 44.53389 C 313.38079,512 308,514.90406 308,483.7006 c 0,-32.09607 7.01358,-29.42153 -72.72927,-27.73438 z"
         id="path16" />
      <path
         style="fill:#4ad9fa"
         d="m 240.05683,34.749986 c -109.22873,0.202835 -138.61019,0.520115 -139.23469,1.503549 -1.005192,1.582958 -1.035965,10.86209 -0.0412,12.426248 1.17514,1.84779 310.00048,2.333259 310.70818,0.48843 0.69756,-1.818392 0.62049,-10.157352 -0.1194,-12.918213 -0.59729,-2.228783 -0.75511,-2.247676 -16.73634,-2.003549 -8.87335,0.135547 -78.4328,0.362138 -154.57654,0.503535 z m 4.00006,64.986003 c -112.41647,0.213785 -142.60997,0.533661 -143.23469,1.517451 -0.999237,1.57358 -1.038677,10.85819 -0.0527,12.40784 0.55425,0.87111 39.40477,1.24591 155.48638,1.5 l 154.74751,0.33872 0.5632,-3.00267 c 0.30976,-1.65147 0.42149,-5.25147 0.2483,-8 L 411.5,99.5 399,99.482551 c -6.875,-0.0096 -76.5994,0.10445 -154.94311,0.253438 z M 240,132.9832 101.5,133.5 l -0.25745,63.23628 -0.25745,63.23628 139.25745,0.47225 c 76.5916,0.25973 146.04678,0.73768 154.34484,1.06211 19.6866,0.76968 17.47416,9.22491 17.17012,-65.61843 L 411.5,132.5 395,132.4832 c -9.075,-0.009 -78.825,0.21576 -155,0.5 z m 27.03763,36.036 c 17.60345,8.98061 16.7625,31.28857 -1.9226,51.00117 -9.6175,10.14636 -18.0167,6.01634 -28.55704,-14.04198 -12.70217,-24.17227 7.50777,-48.67857 30.47964,-36.95919 z M 241.5,277.74434 C 84.917225,278.02755 100,277.14757 100,286 c 0,8.75633 -16.741155,7.87964 156.73912,8.20803 127.72341,0.24178 154.32694,0.063 154.75,-1.03982 0.90649,-2.36308 0.54267,-12.24029 -0.5243,-14.23395 -0.96119,-1.796 -2.08701,-1.91664 -15.75,-1.6878 -8.09315,0.13556 -77.26482,0.3596 -153.71482,0.49788 z m 4.5,65.00003 C 84.349734,343.02737 100,342.14241 100,351 c 0,8.71895 -16.607571,7.85584 156.32866,8.1245 132.57087,0.20595 153.95387,0.0411 154.73469,-1.19276 1.02176,-1.61464 1.25871,-11.92889 0.32966,-14.34995 -0.50947,-1.32767 -2.31679,-1.54218 -11.25,-1.33522 -5.85365,0.13562 -75.21801,0.35962 -154.14301,0.4978 z m -9,113.2091 c -33.9964,0.80075 -32,-0.96912 -32,28.36904 V 505.2 l 3.4,3.4 3.4,3.4 h 44.7 44.7 l 3.4,-3.4 3.4,-3.4 v -21.08422 -21.08423 l -2.77836,-3.10952 C 300.62211,454.77426 296.71459,454.54695 237,455.95347 Z"
         id="path15" />
      <path
         style="fill:#34d5fa"
         d="M 241.5,34.982127 101.5,35.5 v 7 7 l 154.79212,0.253157 154.79212,0.253157 -0.29212,-7.753157 L 410.5,34.5 396,34.482127 c -7.975,-0.0098 -77.5,0.215169 -154.5,0.5 z M 246,99.978836 101.5,100.5 v 7 7 l 154.79212,0.25316 154.79212,0.25315 -0.29212,-7.75315 L 410.5,99.5 l -10,-0.02116 c -5.5,-0.01164 -75.025,0.213361 -154.5,0.5 z m -6,33.004364 -138.5,0.5168 -0.25746,63.25 -0.25745,63.25 138.00745,0.23649 c 75.9041,0.13006 145.76996,0.24256 155.25746,0.25 L 411.5,260.5 v -64 -64 L 395,132.4832 c -9.075,-0.009 -78.825,0.21576 -155,0.5 z m 27.03763,36.036 c 17.60345,8.98061 16.7625,31.28857 -1.9226,51.00117 -9.6175,10.14636 -18.0167,6.01634 -28.55704,-14.04198 -12.70217,-24.17227 7.50777,-48.67857 30.47964,-36.95919 z M 239.75,278.73819 101,279.00702 l 0,6.99649 0,6.99649 h 136.83969 c 75.26183,0 145.03205,0.29675 155.04494,0.65943 l 18.20524,0.65944 -0.29494,-7.90944 L 410.5,278.5 l -16,-0.0153 c -8.8,-0.008 -78.4375,0.10565 -154.75,0.25351 z m 4,65.01178 L 101,344.00682 V 351.00341 358 l 139,0.23529 c 76.45,0.12942 146.0875,0.24192 154.75,0.25 l 15.75,0.0147 0.29206,-7.75 0.29207,-7.75 -12.29207,0.24656 c -6.76063,0.13561 -76.52956,0.36214 -155.04206,0.50341 z M 237,455.95347 c -33.9964,0.80075 -32,-0.96912 -32,28.36904 V 505.2 l 3.4,3.4 3.4,3.4 h 44.7 44.7 l 3.4,-3.4 3.4,-3.4 v -21.08422 -21.08423 l -2.77836,-3.10952 C 300.62211,454.77426 296.71459,454.54695 237,455.95347 Z"
         id="path14" />
      <path
         style="fill:#6aace3"
         d="M 239.75,35.738188 101,36.007016 101,42.503508 101,49 244,49.230769 c 78.65,0.126923 148.2875,0.239423 154.75,0.25 L 410.5,49.5 v -7 -7 l -16,-0.01532 c -8.8,-0.0084 -78.4375,0.105652 -154.75,0.253508 z m 3.5,64.997782 -142.25,0.27088 0,6.49657 0,6.49658 139,0.23529 c 76.45,0.12942 146.0875,0.24192 154.75,0.25 L 410.5,114.5 v -7 -7 l -12.5,-0.0174 c -6.875,-0.01 -76.5125,0.10444 -154.75,0.25342 z M 240,132.9832 101.5,133.5 l -0.25746,63.25 -0.25745,63.25 138.00745,0.23649 c 75.9041,0.13006 145.76996,0.24256 155.25746,0.25 L 411.5,260.5 v -64 -64 L 395,132.4832 c -9.075,-0.009 -78.825,0.21576 -155,0.5 z m 27.03763,36.036 c 17.60345,8.98061 16.7625,31.28857 -1.9226,51.00117 -9.6175,10.14636 -18.0167,6.01634 -28.55704,-14.04198 -12.70217,-24.17227 7.50777,-48.67857 30.47964,-36.95919 z m -165.62581,111.35 c -0.28898,0.75306 -0.38735,3.79056 -0.21862,6.75 l 0.3068,5.3808 154.75,0.25315 154.75,0.25316 0,-7.00316 V 279 H 256.46862 c -129.87762,0 -154.61521,0.21844 -155.0568,1.3692 z m 0,65 c -0.28898,0.75306 -0.38735,3.79056 -0.21862,6.75 L 101.5,357.5 H 256 410.5 l 0.29569,-6.75 0.29569,-6.75 H 256.51431 c -129.9163,0 -154.6609,0.21844 -155.10249,1.3692 z M 237,455.95347 c -33.9964,0.80075 -32,-0.96912 -32,28.36904 V 505.2 l 3.4,3.4 3.4,3.4 h 44.7 44.7 l 3.4,-3.4 3.4,-3.4 v -21.08422 -21.08423 l -2.77836,-3.10952 C 300.62211,454.77426 296.71459,454.54695 237,455.95347 Z"
         id="path13" />
      <path
         style="fill:#22d3fa"
         d="M 239.75,35.738188 101,36.007016 101,42.503508 101,49 244,49.230769 c 78.65,0.126923 148.2875,0.239423 154.75,0.25 L 410.5,49.5 v -7 -7 l -16,-0.01532 c -8.8,-0.0084 -78.4375,0.105652 -154.75,0.253508 z m 3.5,64.997782 -142.25,0.27088 0,6.49657 0,6.49658 139,0.23529 c 76.45,0.12942 146.0875,0.24192 154.75,0.25 L 410.5,114.5 v -7 -7 l -12.5,-0.0174 c -6.875,-0.01 -76.5125,0.10444 -154.75,0.25342 z m 135.15355,32.26048 c -0.64983,0.64983 -48.98419,1.08465 -138.95,1.25 L 101.5,134.5 101.24243,196.75 100.98486,259 h 137.94855 c 90.88702,0 138.1594,0.34115 138.56659,1 1.13742,1.84038 33.17457,1.29045 33.89301,-0.58179 0.79304,-2.06662 0.79304,-123.7698 0,-125.83642 -0.71578,-1.86529 -31.16917,-2.40563 -32.98946,-0.58534 z M 267.03763,169.0192 c 17.60345,8.98061 16.7625,31.28857 -1.9226,51.00117 -9.6175,10.14636 -18.0167,6.01634 -28.55704,-14.04198 -12.70217,-24.17227 7.50777,-48.67857 30.47964,-36.95919 z m -165.62581,111.35 c -0.28898,0.75306 -0.38735,3.79056 -0.21862,6.75 l 0.3068,5.3808 154.75,0.25315 154.75,0.25316 0,-7.00316 V 279 H 256.46862 c -129.87762,0 -154.61521,0.21844 -155.0568,1.3692 z m 0,65 c -0.28898,0.75306 -0.38735,3.79056 -0.21862,6.75 L 101.5,357.5 H 256 410.5 l 0.29569,-6.75 0.29569,-6.75 H 256.51431 c -129.9163,0 -154.6609,0.21844 -155.10249,1.3692 z M 262.5673,455.89111 C 262.09573,456.65412 254.24295,457 237.39132,457 203.34441,457 205,455.64645 205,483.48195 c 0,30.57813 -4.72752,27.94751 50.85512,28.29826 56.56954,0.35697 52.14594,2.7322 52.14333,-27.99809 -0.002,-27.8998 -0.0924,-27.9947 -27.12214,-28.60317 -12.21955,-0.27507 -17.83384,-0.0567 -18.30901,0.71216 z"
         id="path12" />
      <path
         style="fill:#54b1e7"
         d="m 101.41002,37.373894 c -0.29131,0.759124 -0.39023,3.573049 -0.21983,6.253166 L 101.5,48.5 H 256 410.5 v -6 -6 L 256.21983,36.246834 C 125.78504,36.032797 101.8578,36.206994 101.41002,37.373894 Z m 0,64.999996 c -0.29131,0.75913 -0.39023,3.57305 -0.21983,6.25317 L 101.5,113.5 H 256 410.5 v -6 -6 l -154.28017,-0.25317 c -130.43479,-0.21403 -154.36203,-0.0398 -154.80981,1.12706 z m 276.99353,30.62256 c -0.64983,0.64983 -48.98419,1.08465 -138.95,1.25 L 101.5,134.5 101.24243,196.75 100.98486,259 h 137.94855 c 90.88702,0 138.1594,0.34115 138.56659,1 1.13742,1.84038 33.17457,1.29045 33.89301,-0.58179 0.79304,-2.06662 0.79304,-123.7698 0,-125.83642 -0.71578,-1.86529 -31.16917,-2.40563 -32.98946,-0.58534 z M 267.03763,169.0192 c 17.60345,8.98061 16.7625,31.28857 -1.9226,51.00117 -9.6175,10.14636 -18.0167,6.01634 -28.55704,-14.04198 -12.70217,-24.17227 7.50777,-48.67857 30.47964,-36.95919 z M 240,279.98293 101.5,280.5 l -0.31049,4.88951 c -0.17077,2.68923 0.0542,5.24833 0.5,5.68688 0.44577,0.43856 70.11049,0.89284 154.81049,1.00952 l 154,0.21214 V 285.89903 279.5 l -16,-0.0171 c -8.8,-0.009 -78.325,0.21562 -154.5,0.5 z m 0.5,64.99975 -139,0.51732 -0.31049,4.88951 c -0.17077,2.68923 0.0542,5.2435 0.5,5.67615 0.44577,0.43265 70.11049,0.90421 154.81049,1.04791 l 154,0.26128 V 350.93743 344.5 l -15.5,-0.0173 c -8.525,-0.01 -78.05,0.21547 -154.5,0.5 z m 22.0673,110.90843 C 262.09573,456.65412 254.24295,457 237.39132,457 203.34441,457 205,455.64645 205,483.48195 c 0,30.57813 -4.72752,27.94751 50.85512,28.29826 56.56954,0.35697 52.14594,2.7322 52.14333,-27.99809 -0.002,-27.8998 -0.0924,-27.9947 -27.12214,-28.60317 -12.21955,-0.27507 -17.83384,-0.0567 -18.30901,0.71216 z"
         id="path11" />
      <path
         style="fill:#16d1fa"
         d="m 101.41002,37.373894 c -0.29131,0.759124 -0.39023,3.573049 -0.21983,6.253166 L 101.5,48.5 H 256 410.5 v -6 -6 L 256.21983,36.246834 C 125.78504,36.032797 101.8578,36.206994 101.41002,37.373894 Z m 0,64.999996 c -0.29131,0.75913 -0.39023,3.57305 -0.21983,6.25317 L 101.5,113.5 H 256 410.5 v -6 -6 L 256.21983,101.24683 C 125.78504,101.0328 101.8578,101.20699 101.41002,102.37389 Z M 240.5,133.99474 101.5,134.5 l -0.25757,62.25 -0.25757,62.25 138.00757,0.23649 c 75.90416,0.13006 145.77007,0.24256 155.25757,0.25 l 17.25,0.0135 0.27618,-61 c 0.15189,-33.55 0.0308,-62.0125 -0.26906,-63.25 -0.53993,-2.22816 -0.69795,-2.24762 -16.27617,-2.00526 -8.65202,0.1346 -78.28095,0.4721 -154.73095,0.75 z m 25.5,33.0838 c 20.71274,9.36499 20.58481,31.99325 -0.30805,54.484 -9.76599,10.5129 -17.08208,7.37246 -29.16578,-12.51945 C 221.2777,183.9414 241.04577,155.79582 266,167.07854 Z M 240,279.98293 101.5,280.5 l -0.31049,4.88951 c -0.17077,2.68923 0.0542,5.24833 0.5,5.68688 0.44577,0.43856 70.11049,0.89284 154.81049,1.00952 l 154,0.21214 V 285.89903 279.5 l -16,-0.0171 c -8.8,-0.009 -78.325,0.21562 -154.5,0.5 z m 0.5,64.99975 -139,0.51732 -0.31049,4.88951 c -0.17077,2.68923 0.0542,5.2435 0.5,5.67615 0.44577,0.43265 70.11049,0.90421 154.81049,1.04791 l 154,0.26128 V 350.93743 344.5 l -15.5,-0.0173 c -8.525,-0.01 -78.05,0.21547 -154.5,0.5 z m 0.5,111.98801 c -38.78718,0.69595 -36,-1.34911 -36,26.41455 0,30.69105 -4.7406,28.04413 50.85512,28.39497 56.56954,0.35697 52.14594,2.7322 52.14333,-27.99809 -0.003,-30.9321 6.97755,-28.13877 -66.99845,-26.81143 z"
         id="path10" />
      <path
         style="fill:#0ad0fa"
         d="m 102,42 v 6 l 135.25,0.0028 c 74.3875,0.0016 143.6875,0.297704 154,0.658112 L 410,49.316224 V 42.658112 36 H 256 102 Z m 0,65 v 6 l 130.75,0.002 c 71.9125,0.001 141.2125,0.29814 154,0.65972 L 410,114.31943 V 107.65972 101 H 256 102 Z m 138.5,26.99474 -139,0.50526 -0.25757,62.25 -0.25757,62.25 138.00757,0.23649 c 75.90416,0.13006 145.77007,0.24256 155.25757,0.25 l 17.25,0.0135 0.27618,-61 c 0.15189,-33.55 0.0308,-62.0125 -0.26906,-63.25 -0.53993,-2.22816 -0.69795,-2.24762 -16.27617,-2.00526 -8.65202,0.1346 -78.28095,0.4721 -154.73095,0.75 z m 25.5,33.0838 c 20.71274,9.36499 20.58481,31.99325 -0.30805,54.484 -9.76599,10.5129 -17.08208,7.37246 -29.16578,-12.51945 C 221.2777,183.9414 241.04577,155.79582 266,167.07854 Z M 102,286 v 6 h 154 154 v -6 -6 H 256 102 Z m 0,65 v 6 h 154 154 v -6 -6 H 256 102 Z m 139,105.97069 c -38.78718,0.69595 -36,-1.34911 -36,26.41455 0,30.69105 -4.7406,28.04413 50.85512,28.39497 56.56954,0.35697 52.14594,2.7322 52.14333,-27.99809 -0.003,-30.9321 6.97755,-28.13877 -66.99845,-26.81143 z"
         id="path9" />
      <path
         style="fill:#6198da"
         d="M 102,42.5 V 48 H 256 410 V 42.5 37 H 256 102 Z m 0,65 V 113 H 256 410 V 107.5 102 H 256 102 Z m 138.5,26.49474 -139,0.50526 -0.25757,62.25 -0.25757,62.25 138.00757,0.23649 c 75.90416,0.13006 145.77007,0.24256 155.25757,0.25 l 17.25,0.0135 0.27618,-61 c 0.15189,-33.55 0.0308,-62.0125 -0.26906,-63.25 -0.53993,-2.22816 -0.69795,-2.24762 -16.27617,-2.00526 -8.65202,0.1346 -78.28095,0.4721 -154.73095,0.75 z m 25.5,33.0838 c 20.71274,9.36499 20.58481,31.99325 -0.30805,54.484 -9.76599,10.5129 -17.08208,7.37246 -29.16578,-12.51945 C 221.2777,183.9414 241.04577,155.79582 266,167.07854 Z m -25.25,113.67143 -138.75,0.25705 0,4.99649 0,4.99649 h 135.83969 c 74.71183,0 144.01183,0.29601 154,0.65781 L 410,292.31561 V 286.15781 280 l -15.25,0.24646 c -8.3875,0.13556 -77.6875,0.36214 -154,0.50351 z m 0,65 -138.75,0.25705 0,4.99649 0,4.99649 132.25,0.002 c 72.7375,0.001 142.0375,0.29802 154,0.65925 L 410,357.3185 V 351.15925 345 l -15.25,0.24646 c -8.3875,0.13556 -77.6875,0.36214 -154,0.50351 z M 241,456.97069 c -38.78718,0.69595 -36,-1.34911 -36,26.41455 0,30.69105 -4.7406,28.04413 50.85512,28.39497 56.56954,0.35697 52.14594,2.7322 52.14333,-27.99809 -0.003,-30.9321 6.97755,-28.13877 -66.99845,-26.81143 z"
         id="path8" />
      <path
         style="fill:#00cffa"
         d="M 102,42.5 V 48 H 256 410 V 42.5 37 H 256 102 Z m 0,65 V 113 H 256 410 V 107.5 102 H 256 102 Z M 377.5,134 c -1.1,0.47269 -63.5375,0.89106 -138.75,0.92971 L 102,135 v 62 62 l 138,0.23611 c 75.9,0.12986 145.5375,0.24236 154.75,0.25 l 16.75,0.0139 0.27618,-61 c 0.15189,-33.55 0.0308,-62.0125 -0.26906,-63.25 C 410.92572,132.8507 382.59769,131.80945 377.5,134 Z M 266,167.07854 c 20.71274,9.36499 20.58481,31.99325 -0.30805,54.484 -9.76599,10.5129 -17.08208,7.37246 -29.16578,-12.51945 C 221.2777,183.9414 241.04577,155.79582 266,167.07854 Z m -25.25,113.67143 -138.75,0.25705 0,4.99649 0,4.99649 h 135.83969 c 74.71183,0 144.01183,0.29601 154,0.65781 L 410,292.31561 V 286.15781 280 l -15.25,0.24646 c -8.3875,0.13556 -77.6875,0.36214 -154,0.50351 z m 0,65 -138.75,0.25705 0,4.99649 0,4.99649 132.25,0.002 c 72.7375,0.001 142.0375,0.29802 154,0.65925 L 410,357.3185 V 351.15925 345 l -15.25,0.24646 c -8.3875,0.13556 -77.6875,0.36214 -154,0.50351 z m 0.75,111.20502 c -30.03731,0.59474 -32.29347,0.92208 -34.47708,5.00219 -2.46455,4.60504 -1.26213,42.89452 1.43163,45.58827 1.35,1.35 2.1375,2.49941 1.75,2.55423 -0.3875,0.0548 0.42045,0.45997 1.79545,0.90032 1.375,0.44035 21.90181,0.8455 45.61514,0.90032 54.60219,0.12624 50.41526,2.48918 50.32284,-28.40032 -0.0913,-30.49592 6.19769,-27.9832 -66.43798,-26.54501 z"
         id="path7" />
      <path
         style="fill:#5697da"
         d="m 377.5,134 c -1.1,0.47269 -63.5375,0.89106 -138.75,0.92971 L 102,135 v 62 62 l 138,0.23611 c 75.9,0.12986 145.5375,0.24236 154.75,0.25 l 16.75,0.0139 0.27618,-61 c 0.15189,-33.55 0.0308,-62.0125 -0.26906,-63.25 C 410.92572,132.8507 382.59769,131.80945 377.5,134 Z M 266,167.07854 c 20.71274,9.36499 20.58481,31.99325 -0.30805,54.484 -9.76599,10.5129 -17.08208,7.37246 -29.16578,-12.51945 C 221.2777,183.9414 241.04577,155.79582 266,167.07854 Z m -24.5,289.87645 c -30.03731,0.59474 -32.29347,0.92208 -34.47708,5.00219 -2.46455,4.60504 -1.26213,42.89452 1.43163,45.58827 1.35,1.35 2.1375,2.49941 1.75,2.55423 -0.3875,0.0548 0.42045,0.45997 1.79545,0.90032 1.375,0.44035 21.90181,0.8455 45.61514,0.90032 54.60219,0.12624 50.41526,2.48918 50.32284,-28.40032 -0.0913,-30.49592 6.19769,-27.9832 -66.43798,-26.54501 z"
         id="path6" />
      <path
         style="fill:#518ed6"
         d="m 378.5,134 c -0.40719,0.65885 -47.67705,1 -138.55902,1 H 102 l 0,61.493 0,61.49299 137.75,0.46299 c 75.7625,0.25465 145.2875,0.72879 154.5,1.05365 L 411,260.09329 V 196.54665 133 h -15.94098 c -9.54864,0 -16.18882,0.401 -16.55902,1 z m -112,31.86734 c 20.46974,9.33122 21.36391,31.75103 2.1638,54.25344 -10.77925,12.63323 -14.54835,12.63323 -25.3276,0 -22.52609,-26.40043 -15.82428,-56.07686 12.6638,-56.07686 4.16105,0 7.93935,0.65614 10.5,1.82342 z M 270,457 c -0.87698,0.56675 -13.26546,0.97573 -29.82692,0.98469 L 211.84615,458 208.92308,460.92308 206,463.84615 V 484 504.15385 l 2.92308,2.92307 c 1.60769,1.6077 2.39519,2.96794 1.75,3.02276 -0.6452,0.0548 -0.0481,0.45997 1.32692,0.90032 3.14813,1.00821 88.13167,1.23097 89.53447,0.23469 5.12529,-3.64 5.46553,-5.36643 5.46553,-27.73319 v -21.22877 l -2.50659,-2.50659 C 300.91577,456.18849 274.52994,454.07253 270,457 Z"
         id="path5" />
      <path
         style="fill:#498bd5"
         d="m 378.2,134.2 c -2.0704,2.0704 -1.69735,124.39517 0.38179,125.19301 0.86998,0.33385 8.51998,0.60699 17,0.60699 H 411 V 196.5 133 h -15.8 c -10.95556,0 -16.16793,0.36793 -17,1.2 z M 270.28173,457.11827 c -0.82436,0.82436 -0.41698,1.72149 1.55,3.41341 L 274.5,462.82683 V 484 505.17317 l -2.80576,2.41341 c -1.55319,1.33599 -2.22283,2.45792 -1.5,2.5131 0.71817,0.0548 0.18076,0.45997 -1.19424,0.90032 -1.49247,0.47797 3.94818,0.83531 13.5,0.88667 25.37074,0.1364 24.5,1.15151 24.5,-28.56219 v -21.05175 l -2.50659,-2.50659 c -3.66598,-3.66598 -31.07241,-5.78714 -34.21168,-2.64787 z"
         id="path4" />
      <path
         style="fill:#2c8ad6"
         d="m 379.13574,134.33644 c -0.84702,1.0206 -1.08303,17.73576 -0.89342,63.27528 L 378.5,259.5 l 16.25747,0.27481 16.25746,0.2748 -0.25746,-63.2748 L 410.5,133.5 395.39342,133.22473 c -11.91776,-0.21717 -15.34956,0.0175 -16.25768,1.11171 z M 271.69455,456.63878 c -0.35133,0.35133 0.47367,1.96086 1.83333,3.57673 2.45793,2.92108 2.47212,3.05858 2.47212,23.96122 V 505.2 l -3.4,3.4 -3.4,3.4 14.65,-0.0136 c 23.78998,-0.0222 23.15,0.75858 23.15,-28.24247 0,-27.53439 -0.0583,-27.60146 -24.08333,-27.70033 -5.82084,-0.0239 -10.87079,0.2439 -11.22212,0.59523 z"
         id="path3" />
      <path
         style="fill:#0572cd"
         d="m 380.11465,135.36186 c -0.81937,0.98728 -1.05934,18.10917 -0.87245,62.25 L 379.5,258.5 l 15.25,0.27605 15.25,0.27604 V 196.52605 134 h -14.37756 c -10.91193,0 -14.64999,0.32827 -15.50779,1.36186 z M 274.0318,457.65189 c 0.0175,0.46646 0.6925,1.72162 1.5,2.78924 1.1846,1.56617 1.4682,6.06995 1.4682,23.31574 0,22.64116 -0.28774,24.2491 -4.77514,26.68433 -2.50812,1.36111 -1.53175,1.48069 12.27514,1.50345 8.25,0.0136 15.675,-0.41149 16.5,-0.94465 0.825,-0.53316 1.18295,-0.97627 0.79545,-0.98469 -0.3875,-0.008 0.4,-1.11986 1.75,-2.46986 C 305.99838,505.09253 306,505.07678 306,483.71977 v -21.37114 l -2.5793,-2.42432 c -2.64975,-2.49052 -29.47485,-4.56471 -29.3889,-2.27242 z"
         id="path2" />
    </g>
  </g>
</svg>
